<?xml version="1.0" encoding="UTF-8" standalone="no"?>
<!DOCTYPE svg PUBLIC "-//W3C//DTD SVG 1.1//EN" "http://www.w3.org/Graphics/SVG/1.1/DTD/svg11.dtd">
<svg width="100%" height="100%" viewBox="0 0 3508 2481" version="1.1" xmlns="http://www.w3.org/2000/svg" xmlns:xlink="http://www.w3.org/1999/xlink" xml:space="preserve" xmlns:serif="http://www.serif.com/" style="fill-rule:evenodd;clip-rule:evenodd;stroke-linejoin:round;stroke-miterlimit:2;">
    <g transform="matrix(1.17789,0.00546629,-0.00548482,1.18189,-380.778,724.166)">
        <path d="M1184.83,742.209C1186.9,804.723 1188.97,817.226 1203.46,848.483C1222.09,890.16 1257.5,923.359 1290.84,933.699C1397.12,964.903 1570.09,869.322 1734.72,688.03C1928.53,475.481 2076.49,221.257 2134.84,-1.711C2157.49,-89.231 2163.74,-197.589 2149.24,-255.67C2128.58,-339.004 2082.74,-397.337 2011.88,-430.67C1957.7,-455.67 1907.69,-464.004 1851.42,-455.67C1803.49,-449.42 1784.73,-439.004 1784.73,-418.17C1784.73,-393.17 1803.49,-386.92 1930.61,-376.504C2030.64,-368.17 2078.57,-341.087 2109.83,-276.504C2165.82,-162.164 2136.91,8.708 2018.13,248.346C1853.5,583.84 1607.6,842.232 1399.2,896.411C1303.34,921.291 1251.25,890.16 1230.41,796.388C1209.67,700.533 1238.74,554.666 1320.02,354.62C1359.61,254.598 1415.88,142.072 1451.3,87.893C1486.73,35.798 1490.9,12.876 1470.06,-10.046C1459.64,-22.549 1453.39,-24.633 1436.72,-22.549C1407.54,-18.382 1390.87,0.373 1328.35,98.312C1276.25,179.58 1036.72,525.493 947.318,648.438C780.552,877.657 645.055,1002.66 565.841,1002.66C544.995,1002.66 542.911,1000.57 534.572,981.743C526.281,962.915 526.281,952.455 532.488,919.222C549.164,806.807 622.125,650.522 828.497,285.855C922.303,119.15 982.488,-45.471 982.488,-132.991C982.488,-197.589 941.064,-241.087 880.612,-241.087C755.537,-241.087 532.488,-85.063 422.332,77.474C368.165,158.742 347.332,206.67 347.332,250.43C347.332,281.687 349.415,285.855 361.915,294.19C388.998,312.944 416.082,281.687 403.582,246.262C386.915,200.419 449.415,94.144 553.334,-10.046C630.463,-89.231 695.085,-139.243 765.96,-174.667C853.512,-216.31 913.965,-222.504 943.149,-193.422C974.285,-162.164 972.234,-82.98 936.895,6.624C907.711,83.725 809.736,275.436 751.368,371.291C624.209,577.588 576.264,667.192 534.572,779.718C480.665,923.359 480.665,1004.73 534.572,1033.7C586.687,1060.74 672.154,1010.94 801.398,877.657C888.95,788.053 953.572,710.952 1111.82,500.487C1249.16,317.112 1290.84,262.933 1292.92,267.1C1292.92,267.1 1280.42,302.525 1263.75,344.201C1201.39,512.99 1176.49,629.683 1180.66,742.209L1184.83,742.209Z" style="fill-rule:nonzero;"/>
        <path d="M2334.57,548.386L2332.49,548.386C2174.16,640.135 2105.41,671.413 2068,671.413C2055.53,671.413 2049.29,669.328 2045.13,663.072C2034.74,646.391 2051.37,573.408 2086.7,496.255C2111.66,442.04 2113.74,425.358 2101.25,410.762C2082.55,387.825 2059.68,398.251 2040.98,439.955C2034.74,456.637 2024.35,485.829 2024.35,487.915C2022.27,492.085 2016.03,515.022 2009.8,537.96C1986.91,619.283 1991.08,671.413 2022.27,692.073C2040.98,704.486 2063.84,704.486 2103.33,692.073C2153.32,675.545 2201.24,648.476 2336.66,562.982C2340.82,560.897 2338.74,552.556 2332.49,552.556L2334.57,548.386ZM2151.24,362.903C2159.57,344.229 2153.32,325.554 2138.74,319.33C2124.16,313.08 2105.41,321.404 2097.1,340.079C2088.78,358.753 2095.02,377.428 2109.57,383.653C2124.16,389.91 2142.91,381.578 2151.24,362.903Z" style="fill-rule:nonzero;"/>
        <path d="M2932.49,573.284C2926.24,577.461 2917.91,581.639 2907.49,587.904C2805.41,656.83 2751.24,671.231 2701.24,646.386C2678.32,633.855 2665.82,617.145 2644.99,573.284C2622.07,525.534 2611.66,517.246 2582.49,519.33C2551.24,521.398 2524.16,535.874 2432.49,596.259C2349.23,650.574 2343,654.737 2338.85,652.663C2336.77,650.574 2336.77,648.485 2336.77,646.396C2336.77,644.308 2343,625.508 2349.23,602.53L2355.46,581.642C2372.07,519.33 2374.16,488.08 2363.76,475.58C2359.61,471.413 2353.38,469.33 2347.15,469.33C2338.85,469.33 2330.55,473.496 2324.32,479.746C2322.24,483.913 2305.64,517.246 2305.64,517.246L2305.64,519.33C2305.64,521.398 2301.48,544.146 2297.33,560.753C2282.75,631.774 2278.58,673.404 2284.83,689.996C2291.08,706.588 2305.64,714.903 2320.17,710.736C2324.32,708.662 2363.76,681.7 2411.66,646.396C2507.49,573.286 2544.99,552.418 2572.07,554.486C2590.82,556.575 2590.82,558.664 2615.82,598.353C2653.32,658.887 2680.41,677.403 2730.41,677.403C2774.16,677.403 2830.41,656.83 2907.49,598.348C2919.99,589.993 2924.16,589.993 2932.49,573.284Z" style="fill-rule:nonzero;"/>
        <path d="M3274.16,546.337L3267.91,546.337C3247.07,558.86 3213.74,556.772 3176.24,575.557C3140.88,594.278 3147.09,600.475 3136.73,542.162C3126.37,479.548 3113.93,444.078 3093.15,417.103C3070.2,390.129 3057.68,381.83 3034.72,381.83C3001.34,381.83 2955.43,412.954 2928.38,454.502C2913.87,479.548 2897.3,527.552 2893.15,558.86C2891.08,575.557 2891.08,600.475 2891.08,600.475L2893.15,619.069C2899.37,656.582 2922.16,685.761 2945,685.761C2978.39,685.761 3030.55,612.871 3070.2,508.768C3074.37,498.332 3078.55,489.984 3080.63,489.984C3084.81,492.071 3103.57,573.47 3105.64,602.541L3107.72,625.319L3047.24,673.256C2974.21,729.53 2874.39,827.489 2834.74,881.678C2755.43,987.974 2716.08,1081.76 2720.25,1158.88C2722.3,1188.06 2724.36,1198.48 2734.63,1217.24C2755.43,1256.68 2788.82,1273.24 2843.08,1271.15C2868.12,1269.09 2878.56,1267.02 2907.66,1252.54C3018.03,1198.48 3103.57,1069.26 3134.66,910.857C3147.09,844.162 3151.24,800.394 3151.24,706.604L3151.24,619.069L3172.07,602.541C3203.32,583.905 3255.41,575.557 3278.32,560.947C3286.66,556.772 3282.49,544.25 3272.07,544.25L3274.16,546.337ZM3026.38,537.988C3001.34,588.08 2980.47,623.235 2972.12,633.656C2955.43,650.33 2942.91,654.498 2938.74,644.077C2930.45,625.319 2940.83,563.034 2957.52,523.378C2980.47,467.025 3034.72,429.553 3057.68,454.502C3066.03,462.851 3066.03,464.938 3026.38,542.162L3026.38,537.988ZM3103.57,867.089C3084.81,990.058 3040.99,1083.85 2970.04,1154.71C2938.74,1188.06 2893.15,1219.32 2866.04,1227.66C2755.43,1262.88 2709.83,1188.06 2759.61,1054.67C2797.17,952.542 2907.66,817.067 3051.42,698.267L3107.72,652.414L3109.79,681.593C3113.93,719.109 3109.79,808.731 3101.5,862.92L3103.57,867.089Z" style="fill-rule:nonzero;"/>
    </g>
</svg>
